<svg xmlns="http://www.w3.org/2000/svg" viewBox="0 0 100 100">
  <circle cx="50" cy="50" r="45" fill="#1a1a1a" stroke="#e0544d" stroke-width="3"/>
  <g fill="#e0544d">
    <rect x="46" y="2" width="8" height="14" rx="2"/>
    <rect x="46" y="84" width="8" height="14" rx="2"/>
    <rect x="2" y="46" width="14" height="8" rx="2"/>
    <rect x="84" y="46" width="14" height="8" rx="2"/>
    <rect x="14.5" y="14.5" width="8" height="14" rx="2" transform="rotate(45 18.5 21.5)"/>
    <rect x="77.5" y="71.5" width="8" height="14" rx="2" transform="rotate(45 81.5 78.5)"/>
    <rect x="71.5" y="14.5" width="14" height="8" rx="2" transform="rotate(45 78.5 18.5)"/>
    <rect x="14.5" y="77.5" width="14" height="8" rx="2" transform="rotate(45 21.5 81.5)"/>
  </g>
  <circle cx="50" cy="50" r="22" fill="none" stroke="#e0544d" stroke-width="3"/>
  <circle cx="50" cy="50" r="8" fill="#e0544d"/>
  <text x="50" y="56" text-anchor="middle" fill="#1a1a1a" font-family="Inter, sans-serif" font-weight="800" font-size="16">C</text>
</svg>
